<svg width="18" height="18" viewBox="0 0 18 18" fill="none" xmlns="http://www.w3.org/2000/svg">
<path d="M10.2869 7.71336C9.60433 7.03106 8.67871 6.64777 7.71358 6.64777C6.74846 6.64777 5.82284 7.03106 5.14025 7.71336L2.56608 10.2867C1.88348 10.9693 1.5 11.8951 1.5 12.8604C1.5 13.8258 1.88348 14.7516 2.56608 15.4342C3.24868 16.1168 4.17449 16.5003 5.13983 16.5003C6.10518 16.5003 7.03098 16.1168 7.71358 15.4342L9.00025 14.1475" stroke="#53565B" stroke-width="2" stroke-linecap="round" stroke-linejoin="round"/>
<path d="M7.71289 10.2867C8.39548 10.969 9.3211 11.3523 10.2862 11.3523C11.2513 11.3523 12.177 10.969 12.8596 10.2867L15.4337 7.71334C16.1163 7.03074 16.4998 6.10493 16.4998 5.13959C16.4998 4.17424 16.1163 3.24844 15.4337 2.56584C14.7511 1.88324 13.8253 1.49976 12.86 1.49976C11.8946 1.49976 10.9688 1.88324 10.2862 2.56584L8.99956 3.8525" stroke="#53565B" stroke-width="2" stroke-linecap="round" stroke-linejoin="round"/>
</svg>
