<svg width="32" height="32" viewBox="0 0 32 32" fill="currentColor" xmlns="http://www.w3.org/2000/svg">
<path d="M30.2267 0H1.77333C1.30409 0.00348891 0.855064 0.191442 0.523253 0.523253C0.191442 0.855064 0.00348891 1.30409 0 1.77333V30.2267C0.00348891 30.6959 0.191442 31.1449 0.523253 31.4767C0.855064 31.8086 1.30409 31.9965 1.77333 32H17.0933V19.6267H12.9333V14.7867H17.0933V11.2267C17.0933 7.09333 19.6133 4.84 23.32 4.84C24.56 4.84 25.8 4.84 27.04 5.02667V9.33333H24.4933C22.48 9.33333 22.0933 10.2933 22.0933 11.6933V14.7733H26.8933L26.2667 19.6133H22.0933V32H30.2267C30.6959 31.9965 31.1449 31.8086 31.4767 31.4767C31.8086 31.1449 31.9965 30.6959 32 30.2267V1.77333C31.9965 1.30409 31.8086 0.855064 31.4767 0.523253C31.1449 0.191442 30.6959 0.00348891 30.2267 0Z" fill="#53565B"/>
</svg>
