<svg width="32" height="26" viewBox="0 0 32 26" fill="none" xmlns="http://www.w3.org/2000/svg">
<path d="M10.052 26.0004C22.128 26.0004 28.734 15.9944 28.734 7.33241C28.734 7.05241 28.734 6.76841 28.722 6.48841C30.0081 5.55738 31.1181 4.40471 32 3.08441C30.7986 3.61411 29.5255 3.96322 28.222 4.12041C29.5951 3.29969 30.6234 2.00835 31.116 0.48641C29.826 1.25066 28.414 1.78716 26.942 2.07241C25.9524 1.01846 24.6428 0.320245 23.2162 0.0859247C21.7895 -0.148396 20.3254 0.0942526 19.0507 0.776284C17.7759 1.45832 16.7616 2.54167 16.1649 3.85853C15.5682 5.17539 15.4224 6.65228 15.75 8.06041C13.1395 7.92951 10.5856 7.25135 8.25409 6.0699C5.92254 4.88844 3.86537 3.2301 2.216 1.20241C1.37868 2.64858 1.12315 4.35921 1.50129 5.98694C1.87944 7.61467 2.86291 9.03747 4.252 9.96641C3.21108 9.93104 2.19304 9.65153 1.28 9.15041V9.24041C1.28179 10.7554 1.80661 12.2233 2.76575 13.3959C3.72488 14.5686 5.0595 15.3742 6.544 15.6764C5.98053 15.8316 5.39846 15.909 4.814 15.9064C4.40197 15.9077 3.99076 15.8695 3.586 15.7924C4.00557 17.0965 4.82255 18.2367 5.92249 19.0534C7.02244 19.87 8.35027 20.3221 9.72 20.3464C7.39311 22.174 4.5188 23.1652 1.56 23.1604C1.03864 23.1626 0.517646 23.1326 0 23.0704C3.00303 24.9849 6.4906 26.0015 10.052 26.0004Z" fill="#53565B"/>
</svg>
