<svg width="88" height="88" viewBox="0 0 88 88" fill="none" xmlns="http://www.w3.org/2000/svg">
<g filter="url(#filter0_d_100_1040)">
<circle cx="44" cy="40" r="40" fill="white"/>
</g>
<path d="M13.4955 36.504H16.4475C16.8155 36.504 17.1555 36.548 17.4675 36.636C17.7875 36.724 18.0595 36.856 18.2835 37.032C18.5155 37.2 18.6955 37.42 18.8235 37.692C18.9595 37.956 19.0275 38.268 19.0275 38.628C19.0275 39.116 18.8915 39.516 18.6195 39.828C18.3475 40.132 17.9955 40.356 17.5635 40.5V40.524C17.8195 40.54 18.0595 40.608 18.2835 40.728C18.5075 40.84 18.6995 40.992 18.8595 41.184C19.0275 41.368 19.1595 41.584 19.2555 41.832C19.3515 42.08 19.3995 42.348 19.3995 42.636C19.3995 43.02 19.3195 43.36 19.1595 43.656C19.0075 43.944 18.7955 44.188 18.5235 44.388C18.2515 44.588 17.9355 44.74 17.5755 44.844C17.2155 44.948 16.8275 45 16.4115 45H13.4955V36.504ZM14.6475 40.032H16.2195C16.4355 40.032 16.6395 40.012 16.8315 39.972C17.0235 39.924 17.1915 39.848 17.3355 39.744C17.4795 39.64 17.5915 39.508 17.6715 39.348C17.7595 39.188 17.8035 38.992 17.8035 38.76C17.8035 38.424 17.6955 38.132 17.4795 37.884C17.2635 37.636 16.9235 37.512 16.4595 37.512H14.6475V40.032ZM14.6475 43.992H16.3395C16.5155 43.992 16.7075 43.976 16.9155 43.944C17.1315 43.904 17.3315 43.832 17.5155 43.728C17.6995 43.616 17.8555 43.468 17.9835 43.284C18.1115 43.1 18.1755 42.856 18.1755 42.552C18.1755 42.048 18.0115 41.672 17.6835 41.424C17.3555 41.168 16.9115 41.04 16.3515 41.04H14.6475V43.992ZM24.9181 36.504H25.9621L29.5981 45H28.2541L27.4021 42.9H23.3581L22.5181 45H21.1741L24.9181 36.504ZM26.9821 41.892L25.3981 37.992H25.3741L23.7661 41.892H26.9821ZM37.8193 38.34C37.5793 38.028 37.2753 37.788 36.9073 37.62C36.5393 37.452 36.1593 37.368 35.7673 37.368C35.2873 37.368 34.8513 37.46 34.4593 37.644C34.0753 37.82 33.7433 38.064 33.4633 38.376C33.1913 38.688 32.9793 39.056 32.8273 39.48C32.6753 39.896 32.5993 40.344 32.5993 40.824C32.5993 41.272 32.6713 41.696 32.8153 42.096C32.9593 42.496 33.1673 42.848 33.4393 43.152C33.7113 43.456 34.0433 43.696 34.4353 43.872C34.8273 44.048 35.2713 44.136 35.7673 44.136C36.2553 44.136 36.6833 44.036 37.0513 43.836C37.4193 43.636 37.7313 43.356 37.9873 42.996L38.9593 43.728C38.8953 43.816 38.7833 43.944 38.6233 44.112C38.4633 44.272 38.2513 44.436 37.9873 44.604C37.7233 44.764 37.4033 44.904 37.0273 45.024C36.6593 45.152 36.2313 45.216 35.7433 45.216C35.0713 45.216 34.4633 45.088 33.9193 44.832C33.3833 44.576 32.9233 44.24 32.5393 43.824C32.1633 43.408 31.8753 42.94 31.6753 42.42C31.4753 41.892 31.3753 41.36 31.3753 40.824C31.3753 40.168 31.4833 39.564 31.6993 39.012C31.9153 38.452 32.2153 37.972 32.5993 37.572C32.9913 37.164 33.4593 36.848 34.0033 36.624C34.5473 36.4 35.1473 36.288 35.8033 36.288C36.3633 36.288 36.9113 36.396 37.4473 36.612C37.9913 36.828 38.4353 37.16 38.7793 37.608L37.8193 38.34ZM41.5525 36.504H42.7045V40.176H42.8005L46.5565 36.504H48.1645L44.0605 40.428L48.4405 45H46.7605L42.8005 40.752H42.7045V45H41.5525V36.504ZM56.8496 37.584H54.1136V36.504H60.7376V37.584H58.0016V45H56.8496V37.584ZM67.0643 45.216C66.4163 45.216 65.8203 45.104 65.2763 44.88C64.7323 44.648 64.2643 44.332 63.8723 43.932C63.4883 43.532 63.1843 43.06 62.9603 42.516C62.7443 41.972 62.6363 41.384 62.6363 40.752C62.6363 40.12 62.7443 39.532 62.9603 38.988C63.1843 38.444 63.4883 37.972 63.8723 37.572C64.2643 37.172 64.7323 36.86 65.2763 36.636C65.8203 36.404 66.4163 36.288 67.0643 36.288C67.7123 36.288 68.3083 36.404 68.8523 36.636C69.3963 36.86 69.8603 37.172 70.2443 37.572C70.6363 37.972 70.9403 38.444 71.1563 38.988C71.3803 39.532 71.4923 40.12 71.4923 40.752C71.4923 41.384 71.3803 41.972 71.1563 42.516C70.9403 43.06 70.6363 43.532 70.2443 43.932C69.8603 44.332 69.3963 44.648 68.8523 44.88C68.3083 45.104 67.7123 45.216 67.0643 45.216ZM67.0643 44.136C67.5523 44.136 67.9923 44.048 68.3843 43.872C68.7763 43.688 69.1123 43.444 69.3923 43.14C69.6723 42.836 69.8883 42.48 70.0403 42.072C70.1923 41.656 70.2683 41.216 70.2683 40.752C70.2683 40.288 70.1923 39.852 70.0403 39.444C69.8883 39.028 69.6723 38.668 69.3923 38.364C69.1123 38.06 68.7763 37.82 68.3843 37.644C67.9923 37.46 67.5523 37.368 67.0643 37.368C66.5763 37.368 66.1363 37.46 65.7443 37.644C65.3523 37.82 65.0163 38.06 64.7363 38.364C64.4563 38.668 64.2403 39.028 64.0883 39.444C63.9363 39.852 63.8603 40.288 63.8603 40.752C63.8603 41.216 63.9363 41.656 64.0883 42.072C64.2403 42.48 64.4563 42.836 64.7363 43.14C65.0163 43.444 65.3523 43.688 65.7443 43.872C66.1363 44.048 66.5763 44.136 67.0643 44.136ZM34.1739 55.584H31.4379V54.504H38.0619V55.584H35.3259V63H34.1739V55.584ZM44.3885 63.216C43.7405 63.216 43.1445 63.104 42.6005 62.88C42.0565 62.648 41.5885 62.332 41.1965 61.932C40.8125 61.532 40.5085 61.06 40.2845 60.516C40.0685 59.972 39.9605 59.384 39.9605 58.752C39.9605 58.12 40.0685 57.532 40.2845 56.988C40.5085 56.444 40.8125 55.972 41.1965 55.572C41.5885 55.172 42.0565 54.86 42.6005 54.636C43.1445 54.404 43.7405 54.288 44.3885 54.288C45.0365 54.288 45.6325 54.404 46.1765 54.636C46.7205 54.86 47.1845 55.172 47.5685 55.572C47.9605 55.972 48.2645 56.444 48.4805 56.988C48.7045 57.532 48.8165 58.12 48.8165 58.752C48.8165 59.384 48.7045 59.972 48.4805 60.516C48.2645 61.06 47.9605 61.532 47.5685 61.932C47.1845 62.332 46.7205 62.648 46.1765 62.88C45.6325 63.104 45.0365 63.216 44.3885 63.216ZM44.3885 62.136C44.8765 62.136 45.3165 62.048 45.7085 61.872C46.1005 61.688 46.4365 61.444 46.7165 61.14C46.9965 60.836 47.2125 60.48 47.3645 60.072C47.5165 59.656 47.5925 59.216 47.5925 58.752C47.5925 58.288 47.5165 57.852 47.3645 57.444C47.2125 57.028 46.9965 56.668 46.7165 56.364C46.4365 56.06 46.1005 55.82 45.7085 55.644C45.3165 55.46 44.8765 55.368 44.3885 55.368C43.9005 55.368 43.4605 55.46 43.0685 55.644C42.6765 55.82 42.3405 56.06 42.0605 56.364C41.7805 56.668 41.5645 57.028 41.4125 57.444C41.2605 57.852 41.1845 58.288 41.1845 58.752C41.1845 59.216 41.2605 59.656 41.4125 60.072C41.5645 60.48 41.7805 60.836 42.0605 61.14C42.3405 61.444 42.6765 61.688 43.0685 61.872C43.4605 62.048 43.9005 62.136 44.3885 62.136ZM51.6729 54.504H54.6609C55.2049 54.504 55.6529 54.58 56.0049 54.732C56.3569 54.876 56.6329 55.064 56.8329 55.296C57.0409 55.52 57.1849 55.776 57.2649 56.064C57.3449 56.344 57.3849 56.616 57.3849 56.88C57.3849 57.144 57.3449 57.42 57.2649 57.708C57.1849 57.988 57.0409 58.244 56.8329 58.476C56.6329 58.7 56.3569 58.888 56.0049 59.04C55.6529 59.184 55.2049 59.256 54.6609 59.256H52.8249V63H51.6729V54.504ZM52.8249 58.248H54.3369C54.5609 58.248 54.7809 58.232 54.9969 58.2C55.2209 58.16 55.4169 58.092 55.5849 57.996C55.7609 57.9 55.9009 57.764 56.0049 57.588C56.1089 57.404 56.1609 57.168 56.1609 56.88C56.1609 56.592 56.1089 56.36 56.0049 56.184C55.9009 56 55.7609 55.86 55.5849 55.764C55.4169 55.668 55.2209 55.604 54.9969 55.572C54.7809 55.532 54.5609 55.512 54.3369 55.512H52.8249V58.248Z" fill="#E89DB9"/>
<path d="M38.6665 22.6667L43.9998 17.3334L49.3332 22.6667" stroke="#E89DB9" stroke-linecap="round" stroke-linejoin="round"/>
<defs>
<filter id="filter0_d_100_1040" x="0" y="0" width="88" height="88" filterUnits="userSpaceOnUse" color-interpolation-filters="sRGB">
<feFlood flood-opacity="0" result="BackgroundImageFix"/>
<feColorMatrix in="SourceAlpha" type="matrix" values="0 0 0 0 0 0 0 0 0 0 0 0 0 0 0 0 0 0 127 0" result="hardAlpha"/>
<feOffset dy="4"/>
<feGaussianBlur stdDeviation="2"/>
<feComposite in2="hardAlpha" operator="out"/>
<feColorMatrix type="matrix" values="0 0 0 0 0 0 0 0 0 0 0 0 0 0 0 0 0 0 0.25 0"/>
<feBlend mode="normal" in2="BackgroundImageFix" result="effect1_dropShadow_100_1040"/>
<feBlend mode="normal" in="SourceGraphic" in2="effect1_dropShadow_100_1040" result="shape"/>
</filter>
</defs>
</svg>
