<svg width="70" height="29" viewBox="0 0 62 21" fill="none" xmlns="http://www.w3.org/2000/svg">
<path d="M1.274 5.088H3.038L8.498 13.236H8.526V5.088H9.87V15H8.162L2.646 6.852H2.618V15H1.274V5.088ZM12.4166 5.088H18.8146V6.348H13.7606V9.302H18.4646V10.562H13.7606V13.74H19.0666V15H12.4166V5.088ZM23.2712 9.792L19.9392 5.088H21.6612L24.2372 8.896L26.7852 5.088H28.4652L25.1612 9.778L28.8012 15H27.0372L24.1952 10.702L21.3392 15H19.6732L23.2712 9.792ZM32.1253 6.348H28.9333V5.088H36.6613V6.348H33.4693V15H32.1253V6.348Z" fill="#E89DB9"/>
<path d="M55.5834 6.41669L59.6667 10.5L55.5834 14.5834M50.3334 10.5H59.6667H50.3334Z" stroke="#E89DB9" stroke-width="1.5" stroke-linecap="round" stroke-linejoin="round"/>
</svg>
