<svg width="70" height="29" viewBox="0 0 62 21" fill="none" xmlns="http://www.w3.org/2000/svg">
<path d="M6.41663 6.41669L2.33329 10.5L6.41663 14.5834M11.6666 10.5H2.33329H11.6666Z" stroke="#E89DB9" stroke-width="1.5" stroke-linecap="round" stroke-linejoin="round"/>
<path d="M23.274 5.088H26.76C27.3947 5.088 27.9173 5.17667 28.328 5.354C28.7387 5.522 29.0607 5.74133 29.294 6.012C29.5367 6.27333 29.7047 6.572 29.798 6.908C29.8913 7.23467 29.938 7.552 29.938 7.86C29.938 8.168 29.8913 8.49 29.798 8.826C29.7047 9.15267 29.5367 9.45133 29.294 9.722C29.0607 9.98333 28.7387 10.2027 28.328 10.38C27.9173 10.548 27.3947 10.632 26.76 10.632H24.618V15H23.274V5.088ZM24.618 9.456H26.382C26.6433 9.456 26.9 9.43733 27.152 9.4C27.4133 9.35333 27.642 9.274 27.838 9.162C28.0433 9.05 28.2067 8.89133 28.328 8.686C28.4493 8.47133 28.51 8.196 28.51 7.86C28.51 7.524 28.4493 7.25333 28.328 7.048C28.2067 6.83333 28.0433 6.67 27.838 6.558C27.642 6.446 27.4133 6.37133 27.152 6.334C26.9 6.28733 26.6433 6.264 26.382 6.264H24.618V9.456ZM31.5728 5.088H35.0588C35.6935 5.088 36.2162 5.17667 36.6268 5.354C37.0375 5.522 37.3595 5.74133 37.5928 6.012C37.8355 6.27333 38.0035 6.572 38.0968 6.908C38.1902 7.23467 38.2368 7.552 38.2368 7.86C38.2368 8.17733 38.1808 8.48533 38.0688 8.784C37.9568 9.07333 37.7935 9.33933 37.5788 9.582C37.3735 9.81533 37.1168 10.016 36.8088 10.184C36.5102 10.3427 36.1742 10.4407 35.8008 10.478L38.6148 15H36.9348L34.4148 10.632H32.9168V15H31.5728V5.088ZM32.9168 9.456H34.6808C34.9422 9.456 35.1988 9.43733 35.4508 9.4C35.7122 9.35333 35.9408 9.274 36.1368 9.162C36.3422 9.05 36.5055 8.89133 36.6268 8.686C36.7482 8.47133 36.8088 8.196 36.8088 7.86C36.8088 7.524 36.7482 7.25333 36.6268 7.048C36.5055 6.83333 36.3422 6.67 36.1368 6.558C35.9408 6.446 35.7122 6.37133 35.4508 6.334C35.1988 6.28733 34.9422 6.264 34.6808 6.264H32.9168V9.456ZM40.1314 5.088H46.5294V6.348H41.4754V9.302H46.1794V10.562H41.4754V13.74H46.7814V15H40.1314V5.088ZM47.332 5.088H48.886L51.798 13.152H51.826L54.85 5.088H56.32L52.414 15H51.154L47.332 5.088Z" fill="#E89DB9"/>
</svg>
